Patient4_TMGait_0pt4_03_right_33_EMG.mot
version=1
nRows=40
nColumns=33
inDegrees=no
endheader
time	1LAddLong	2LGlutMax	3LGlutMed	4LIliopsoas	5LSemiMemb	6LBicFemLong	7LRecFem	8LVastMed	9LVastLat	10LGasMed	11LTibAnt	12lTibPost	13LPeroneusLong	14LSol	15LExtDigLong	16LFlexDigLong	17RAddLong	18RGlutMax	19RGlutMed	20RIliopsoas	21RSemiMemb	22RBicFemLong	23RRecFem	24RVastMed	25RVastLat	26RGasMed	27RTibAnt	28RTibPost	29RPeroneusLong	30RSol	31RExtDigLong	32RFlexDigLong
43.85	0.030212	-0.11566	-0.017395	-0.005493	-0.048218	-0.03952	0.039215	-0.010681	-0.033264	-0.016785	-0.018616	0.019073	0.005188	0.060577	-0.010834	0.001526	0.010986	-0.007935	-0.022888	0.026093	-0.010986	0.12146	-0.3064	-0.023193	-0.040588	0.068054	0.009308	-0.018768	0.15961	0.25787	-0.000458	-0.004578
43.851	0.028076	-0.12253	0.015411	-0.002136	0.001221	-0.22217	0.10956	-0.004272	-0.071411	-0.017242	-0.04837	0.015717	0.045166	0.056915	-0.037842	0.003662	0.023499	-0.03479	-0.01709	0.18356	0.05722	0.16312	-0.28458	-0.06485	-0.029144	-0.024109	0.020447	-0.021057	-0.00824	0.27618	0.000305	-0.021973
43.852	0.011139	-0.1236	0.019836	-0.005798	0.042725	-0.17029	0.09552	0.00351	-0.12039	-0.030365	-0.048828	0.01236	0.11673	0.0383	-0.043793	0.005035	0.009003	-0.11307	0.009613	0.16953	0.13794	0.23987	-0.32761	-0.059357	-0.017548	-0.038605	0.030823	-0.043335	0.04837	0.29617	-0.001526	-0.011597
43.853	0.006104	-0.084381	0.005341	0.017395	0.027466	-0.10864	0.022125	0.006714	-0.12817	-0.003052	0.004425	0.015869	0.079651	0.053406	0.020294	-0.003967	0.014954	-0.16647	0.041351	0.2066	0.13702	0.24262	-0.28641	-0.050507	-0.026855	-0.031433	0.031433	-0.013123	-0.019684	0.28061	-0.002899	-0.014801
43.854	0.007935	-0.077209	0.010223	0.003052	0.027618	-0.017548	-0.023651	0.009766	-0.074768	0.012054	0.042725	0.007782	0.013733	0.044403	0.016785	-0.013123	0.028839	-0.14084	0.21225	0.22995	0.11826	0.12497	-0.30975	-0.053711	-0.02533	-0.055695	0.016479	0.036926	-0.13321	0.16678	-0.002899	-0.014191
43.855	0.017242	-0.019531	0.033875	-0.018005	0.042572	0.049438	-0.054169	0.016632	-0.050507	0.006866	0.047302	0.012207	0.005798	0.05661	0.006256	-0.007477	0.022736	-0.1062	0.057373	0.13107	0.021973	0.047302	-0.34424	-0.029602	-0.007782	0.013275	0.014496	0.001068	-0.093231	-0.041962	-0.002289	-0.013885
43.856	0.013123	0.019073	0.051117	-0.012817	0.061493	0.062103	-0.086975	0.012817	-0.088348	0.001831	0.040588	0.013123	0.014801	0.057373	-0.000763	-0.002747	0.007172	-0.1236	-0.15549	-0.005493	-0.054626	0.029602	-0.30899	0.0177	-0.023956	0.034332	0.020447	-0.004578	-0.013123	-0.16525	-0.001831	-0.005646
43.857	0.011597	0.058136	0.028992	-0.002136	0.012665	0.094604	-0.14847	0.011749	-0.07309	0.008392	0.089569	0.015564	0.007019	0.065765	0.009918	0.0177	0.009918	-0.077209	-0.014191	-0.034637	-0.039215	-0.041962	-0.33661	-0.012512	-0.020294	-0.018005	0.023956	-0.005646	0.020599	-0.027924	-0.002747	-0.025635
43.858	-0.00824	0.084381	0.006561	0.024414	-0.044403	0.11444	-0.13977	0.021362	0.016785	0.007629	0.12985	0.018616	0.014496	0.074463	0.010376	0.001526	0.010223	-0.014191	0.29556	0.010071	0.042267	-0.054626	-0.35492	-0.012665	-0.026093	0.0354	0.005646	-0.006866	-0.077362	0.24323	-0.003052	-0.023804
43.859	-0.015411	0.13596	0.017548	0.016785	-0.080566	0.10849	-0.1831	0.021667	0.097046	0.007019	0.12665	0.014191	0.014801	0.086975	0.024109	-0.004883	0.011902	0.001984	0.59631	0.069122	0.075684	-0.096741	-0.33081	-0.007935	-0.019836	0.079193	-0.012817	0	-0.028076	-0.085297	-0.007935	-0.026398
43.86	-0.016327	0.15091	-0.000153	0.007172	-0.09491	-0.047302	-0.12604	0.013885	0.2002	-0.000458	0.057068	0.013428	0.015259	0.068512	0.030365	0.013428	0.023193	-0.022125	0.072784	0.03067	0.075989	-0.11276	-0.31998	-0.039978	-0.037689	-0.010986	-0.014954	-0.000153	0.030823	-0.55527	-0.005188	-0.029755
43.861	0.003052	0.13367	-0.006714	0.014954	-0.064392	-0.29663	-0.10544	-0.00473	0.22247	-0.016327	-0.002136	0.014496	0.033112	0.065613	0.029144	0.003662	0.00351	-0.070343	0.15198	-0.10086	0.072479	-0.065918	-0.32333	-0.044098	-0.025024	-0.026855	-0.00412	-0.004425	0.1033	-0.033417	0.000305	-0.026855
43.862	0.006561	0.15228	-0.005646	-0.000153	0.012817	-0.30716	-0.13687	-0.014954	0.1326	-0.016785	-0.15518	0.014496	0.029755	0.090332	0.016937	0.006256	-0.025787	-0.08667	0.13809	-0.14847	0.10437	-0.066833	-0.35278	0.010834	-0.021057	-0.01297	0.032196	-0.012054	0.28183	0.24139	0.007629	-0.022278
43.863	0.014191	0.16327	-0.028687	-0.005951	0.082397	-0.1976	-0.068512	-0.012054	0.063477	-0.00412	-0.15778	0.018921	0.048065	0.094147	0.02182	0.000916	-0.014191	0.010681	0.028534	-0.065765	0.055695	-0.055084	-0.38818	0.042877	-0.000153	0.010071	0.051575	-0.010223	0.2211	-0.046844	0.000153	-0.024567
43.864	0.007477	0.13443	0.009613	0.014343	0.006409	-0.13596	-0.016632	-0.009155	0.050049	0.01236	-0.080261	0.021973	0.003967	0.071411	-0.002747	-0.000763	-0.001984	-0.041809	-0.007629	0.036316	0.01709	-0.054169	-0.3891	0.014038	-0.004883	0.015259	0.02594	-0.014954	0.023346	0.062561	0.000458	-0.015717
43.865	0.005646	0.12573	0.008698	0.009766	0.016174	-0.095367	0.029297	-0.007477	0.11749	0.014191	-0.032959	0.021667	-0.016632	0.071564	0.000458	-0.004883	0.014038	-0.024719	-0.067139	0.052032	-0.021667	-0.097046	-0.33676	-0.02243	-0.023651	0.024719	0.006714	-0.011749	-0.24109	0.23987	0.001984	-0.012512
43.866	-0.009308	0.12787	-0.006561	0.00824	0.034485	-0.010986	0.02182	0.015106	0.20004	0.009613	-0.016632	0.017395	-0.009155	0.068512	-0.017853	-0.005951	0.020447	-0.01236	-0.046692	0.031586	-0.041504	-0.069885	-0.34927	-0.044556	-0.032349	0.029297	-0.027466	-0.007935	0.2005	0.3035	-0.001068	-0.011902
43.867	-0.038147	0.049438	0.006714	-0.005493	-0.077515	0.15167	-0.030212	0.029907	0.2356	0.000305	-0.012054	0.026398	-0.004578	0.068359	-0.005951	-0.005951	0.024719	-0.065308	0.031281	0.032654	-0.031128	-0.063171	-0.36743	-0.056	-0.026703	0.007172	-0.021057	-0.002747	0.49866	0.12436	-0.005341	-0.010681
43.868	-0.043182	0.045624	-0.001373	0.009613	-0.13611	0.11963	-0.103	0.031433	0.1265	-0.001526	-0.012665	0.036163	0.01358	0.083923	-0.003662	0.003967	0.016174	-0.068512	0.013275	-0.036926	-0.003967	-0.057068	-0.34683	-0.003204	-0.009308	0	0.00473	-0.017853	0.28198	-0.12619	-0.001526	-0.008087
43.869	-0.041656	0.058899	0.015411	0.00061	-0.14191	0.063324	-0.092621	0.024109	-0.063477	0.010834	-0.010376	0.046082	0.010529	0.08728	-0.007935	-0.002441	0.013885	-0.070496	0.095215	-0.16266	0.027313	-0.099792	-0.38223	0.010376	-0.014954	0.001831	-0.006256	-0.039978	-0.052948	0.17136	-0.000916	-0.010223
43.87	-0.02243	0.11017	0.010986	-0.00473	-0.050354	0.24231	-0.0914	0.018463	-0.1387	0.007629	-0.012512	0.036316	0.012817	0.051422	-0.055847	-0.004578	0.023804	-0.031433	0.038147	-0.097961	0.033722	-0.093536	-0.38437	-0.0177	-0.015869	0.00885	-0.026703	-0.31586	-0.27664	-0.028534	0.00061	-0.019836
43.871	-0.00473	0.15747	0.050507	-0.003967	0.010223	0.26962	-0.11704	0.006561	-0.11749	0.015564	-0.010223	0.061646	0.015869	0.07782	-0.040741	0.00824	0.040283	-0.010223	0.13092	-0.002289	0.000916	-0.10056	-0.3923	-0.04715	-0.024414	0.012054	0.004272	0.15778	-0.19821	-0.40573	-0.004272	-0.024261
43.872	0.010986	0.1387	0.029144	-0.012512	0.12054	0.2948	-0.16312	-0.000153	-0.09552	0.011139	-0.018463	0.067596	0.012054	0.077515	-0.0177	0.002594	0.057831	-0.064545	0.090179	-0.004578	0.11093	-0.1329	-0.39749	-0.046692	-0.02121	0.016327	0.023499	0.1181	0.18784	-0.26306	-0.001984	-0.035706
43.873	-0.005493	0.10666	0.001678	-0.011444	0.098419	0.2652	-0.094452	0.025177	-0.088806	0.00885	-0.012817	0.070648	0.013885	0.075684	-0.018463	0.005341	0.071869	-0.049133	0.14358	-0.039825	0.13321	-0.11139	-0.38971	-0.001221	-0.002441	0.016632	0.056	0.063629	-0.15335	0.061035	0.002441	-0.0354
43.874	-0.014191	0.10178	0.002289	0.014801	-0.013123	0.17288	-0.000305	0.010986	-0.072479	0.011139	-0.013123	0.078888	0.009766	0.070801	-0.014343	0.017242	0.053711	-0.073395	0.057526	-0.044556	0.17792	-0.14862	-0.41916	-0.003662	-0.005951	0.012207	0.036011	0.021515	-0.031891	-0.041351	-0.004272	-0.034485
43.875	0.001373	0.068207	0.019989	0.027924	-0.06546	0.005188	0.036926	-0.008392	-0.055237	0.020447	0.003052	0.080872	0.004883	0.093231	0.004272	0.009308	0.013275	-0.089111	-0.060425	-0.097198	-0.021515	0.02243	-0.3891	0.032654	0.022278	0.007172	-0.017853	0.008392	-0.080261	-0.34714	-0.00412	-0.0383
43.876	0.016174	0.052338	0.018768	0.01358	0.000305	-0.01709	-0.003204	-0.00412	0.007172	0.009766	0.024719	0.083008	-0.010529	0.11658	0.016022	0.013123	-0.019531	-0.067291	-0.075684	-0.13306	-0.053711	0.14069	-0.3833	0.039978	0.016785	0.000153	-0.039978	0.002747	0.21362	-0.53207	-0.002441	-0.031433
43.877	0.03418	0.095367	0.028534	0.007629	-0.013428	0.050354	-0.018463	0.012054	0.008392	0.013275	0.017853	0.08606	-0.007477	0.092163	0.025482	0.017395	-0.024567	-0.019226	-0.085297	-0.08667	0.11917	0.27725	-0.40192	0.096283	0.013428	-0.014038	-0.011139	-0.060577	-0.28091	-0.52353	-0.00412	-0.032043
43.878	0.0354	0.14618	-0.007629	0.014343	-0.026703	0.05249	-0.020294	0.003357	0.02533	0.00061	0.029907	0.071716	-0.008392	0.091705	0.055084	0.024567	-0.024414	-0.054932	-0.058441	0.001984	0.29159	0.27023	-0.34515	-0.00351	-0.010834	0.001373	-0.035706	0.02655	-0.55374	-0.40222	0.003967	-0.019836
43.879	0.037384	0.09079	-0.017853	0.007935	0.083313	-0.046234	-0.024261	0.010834	0.12344	-0.009308	0.009918	0.058594	0.009766	0.11017	0.005798	0.023346	-0.024872	-0.068665	0.041046	0.026093	0.31677	0.22553	-0.29343	-0.005035	-0.016327	0.026093	-0.00824	0.010223	-0.3746	0.17441	-0.003204	-0.019989
43.88	0.029144	0.068512	-0.014496	0.01709	0.13916	-0.097809	-0.037842	0.008087	0.16968	-0.013123	0.005951	0.079041	0.004272	0.11139	-0.023346	0.023499	-0.046539	-0.067291	0.11307	0.013885	0.27634	0.16007	-0.30334	0.042877	-0.005951	0.025177	0.016937	-0.006409	-0.062561	0.19257	-0.001831	-0.007782
43.881	0.028076	0.025177	-0.013428	0.01358	0.099487	0.093842	-0.064545	0.003662	0.16754	-0.002594	0.1088	0.063019	-0.004883	0.11459	-0.053101	0.018921	-0.037994	-0.015564	0.030823	0.083313	0.25482	0.042725	-0.34866	0.062866	0.009613	-0.028992	-0.016174	-0.029755	0.30975	0.053711	-0.008545	-0.00946
43.882	0.035095	-0.004883	-0.046387	0.005188	0.062103	0.15137	-0.03479	0.001526	0.12421	0.001831	0.090332	0.058441	-0.026245	0.10635	-0.021973	0.018005	-0.026855	-0.006866	-0.007629	0.11963	0.27145	0.005188	-0.34088	0.056763	-0.001984	-0.15213	-0.082092	0.018616	0.19821	0.014954	-0.001526	-0.009155
43.883	0.025024	-0.025635	-0.031128	0.007629	0.072937	0.1532	-0.035858	-0.018158	0.071564	0.009155	0.077362	0.04715	-0.033722	0.10895	-0.007477	0.018005	-0.020294	-0.030823	0.005035	0.080261	0.26321	-0.027313	-0.34668	0.016479	0.012207	-0.034332	-0.087585	-0.045471	-0.034943	0.027924	0.000153	0.000916
43.884	0.024109	0.015717	-0.050507	-0.002747	0.052795	-0.03067	-0.061951	-0.026398	0.050049	0.002747	0.083466	0.042114	-0.036469	0.12863	0.00946	0.021515	0.000305	-0.007324	0.066223	0.013733	0.21774	-0.065002	-0.34531	0.004272	0.002899	0.024261	-0.050201	-0.084991	0.071106	0.52643	-0.003662	0.000916
43.885	0.024872	0.049286	-0.10727	0.018158	-0.001526	-0.27176	-0.076752	-0.005035	0.01358	-0.002594	0.053864	0.037537	-0.038452	0.13916	0.051727	-0.002136	0.00885	-0.011902	0.1358	-0.031891	0.18585	-0.071411	-0.31952	-0.031281	-0.013123	0.007782	0.025482	-0.33096	0.20798	0.47195	-0.00061	-0.012207
43.886	0.00885	0.042725	-0.15305	0.018158	-0.075378	-0.31372	-0.050201	0.003357	-0.030365	-0.045013	-0.03006	0.025177	0.028229	0.18707	0.088959	0.017395	0.018005	0.007629	0.053101	-0.041656	0.077057	-0.069275	-0.34775	-0.00824	-0.029144	0.014954	0.052032	0.2388	0.16983	0.48416	-0.000153	-0.016174
43.887	0.006561	-0.048828	-0.1088	0.005035	-0.11231	-0.2179	-0.064392	0.010376	-0.011444	-0.067444	-0.11322	0.018463	0.064392	0.21713	0.054932	0.010071	0.010681	-0.001068	-0.005798	0.004425	0.10513	-0.089874	-0.30884	-0.053558	-0.033112	0.047607	0.048676	0.16907	0.14053	0.26794	-0.001984	-0.012512
43.888	0.00412	-0.081177	-0.046387	0.005798	-0.10117	-0.17914	-0.10101	0.015717	0.079498	-0.042419	-0.10071	0.008392	0.040894	0.233	0.028229	0.004425	0.015564	-0.012512	0.11902	0.018768	0.13794	-0.12817	-0.336	-0.071106	-0.016937	0.014801	-0.02533	-0.022278	-0.3978	-0.001068	-0.002747	-0.011902
43.889	0.014343	-0.12344	0.010529	0.003357	0.058289	-0.16632	-0.16846	0.013733	0.075073	-0.043793	-0.096588	0.002289	-0.011902	0.22919	-0.060883	-0.000305	-0.016479	0.027771	0.080261	-0.035248	0.13779	-0.22171	-0.34775	0.018158	-0.011902	-0.024719	-0.091553	0.072021	-0.67612	0.18646	-0.005341	-0.009766
